HIERARCHY
ROOT Hips
{
	OFFSET 0.000000 0.000000 0.000000 
	CHANNELS 6 Xposition Yposition Zposition Yrotation Zrotation Xrotation 
	JOINT Lumbar
	{
		OFFSET 0.000000 0.000000 0.000000 
		CHANNELS 3 Zrotation Xrotation Yrotation
		JOINT Neck
		{
			OFFSET 0.000000 0.445665 0.000000 
			CHANNELS 3 Zrotation Xrotation Yrotation
			End Site
			{
				OFFSET 0.000000 0.227535 0.000000 
			}
		}
		JOINT RightShoulder
		{
			OFFSET 0.019635 0.377685 0.194865 
			CHANNELS 3 Zrotation Xrotation Yrotation
			JOINT RightElbow
			{
				OFFSET 0.000000 -0.243375 0.000000 
				CHANNELS 2 Zrotation Yrotation
				JOINT RightWrist
				{
					OFFSET 0.000000 -0.264825 0.000000 
					CHANNELS 2 Zrotation Xrotation
					End Site
					{
						OFFSET 0.006600 -0.176220 0.000990 
					}
				}
			}
		}
		JOINT LeftShoulder
		{
			OFFSET 0.019635 0.377685 -0.194865 
			CHANNELS 3 Zrotation Xrotation Yrotation
			JOINT LeftElbow
			{
				OFFSET 0.000000 -0.243375 0.000000 
				CHANNELS 2 Zrotation Yrotation
				JOINT LeftWrist
				{
					OFFSET 0.000000 -0.264825 0.000000 
					CHANNELS 2 Zrotation Xrotation
					End Site
					{
						OFFSET 0.006600 -0.176220 -0.000990 
					}
				}
			}
		}
	}
	JOINT RightHip
	{
		OFFSET 0.052140 -0.069960 0.075570 
		CHANNELS 3 Zrotation Xrotation Yrotation
		JOINT RightKnee
		{
			OFFSET 0.000000 -0.402270 0.000000 
			CHANNELS 1 Zrotation
			JOINT RightAnkle
			{
				OFFSET 0.000000 -0.404085 0.000000 
				CHANNELS 3 Zrotation Xrotation Yrotation
				End Site
				{
					OFFSET 0.204105 -0.089430 0.008415 
				}
			}
		}
	}
	JOINT LeftHip
	{
		OFFSET 0.052140 -0.069960 -0.075570 
		CHANNELS 3 Zrotation Xrotation Yrotation
		JOINT LeftKnee
		{
			OFFSET 0.000000 -0.402270 0.000000 
			CHANNELS 1 Zrotation
			JOINT LeftAnkle
			{
				OFFSET 0.000000 -0.404085 0.000000 
				CHANNELS 3 Zrotation Xrotation Yrotation
				End Site
				{
					OFFSET 0.204105 -0.089430 -0.008415 
				}
			}
		}
	}
}
MOTION
Frames: 30
Frame Time: 0.02
-0.13188 0.44721 -0.11252 187.42233 0 11.9512 -19.72324 -4.63083 -1.40983 -17.37328 -0.84942 -2.09914 87.98429 -22.45383 32.87902 121.80653 90.57157 -19.97128 -5.29003 69.67442 35.66289 -10.16783 135.30927 -102.70877 -31.94044 6.10794 23.96393 -9.34574 -13.2071 -132.96639 21.03319 18.93523 7.24472 79.12246 -11.17932 2.3664 -109.62385 21.13355 -23.02134 -10.84551
-0.13203 0.44725 -0.11243 187.44118 0 11.94234 -19.7898 -4.61219 -1.43544 -17.30193 -0.81461 -2.13278 87.92644 -22.46374 32.90976 121.85628 90.39473 -20.00617 -5.25101 69.46559 35.63204 -10.0699 135.55644 -102.76196 -31.72144 5.15396 23.94426 -9.35572 -13.20916 -132.95503 21.03277 18.97025 7.27153 79.12444 -11.21285 2.35769 -109.63494 21.13389 -23.01232 -10.82866
-0.1322 0.44727 -0.11232 187.46313 0 11.92786 -19.85924 -4.5902 -1.45563 -17.20556 -0.77526 -2.16325 87.86581 -22.48514 32.95848 121.91026 90.11467 -20.08009 -5.18683 69.20028 35.6034 -9.96948 135.97125 -102.47212 -31.39457 3.8635 23.92274 -9.36318 -13.21184 -132.94287 21.03171 19.01221 7.30577 79.12955 -11.25444 2.34195 -109.65271 21.13437 -23.00031 -10.80612
-0.13235 0.44729 -0.1122 187.48386 0 11.91557 -19.92909 -4.56974 -1.47863 -17.11691 -0.73632 -2.19433 87.80428 -22.50254 32.99958 121.96083 89.87895 -20.13903 -5.13379 68.95839 35.57273 -9.86871 136.29579 -102.37413 -31.13075 2.75742 23.90216 -9.37215 -13.21421 -132.93143 21.03098 19.05176 7.33705 79.13381 -11.29252 2.32977 -109.66752 21.13477 -22.98943 -10.78597
-0.13253 0.44733 -0.11212 187.50354 0 11.90482 -19.99089 -4.54923 -1.50028 -17.04444 -0.70436 -2.22901 87.7533 -22.51369 33.03839 122.01763 89.65356 -20.18964 -5.08172 68.72846 35.54659 -9.77367 136.67674 -102.15266 -30.8105 1.513 23.88074 -9.37949 -13.21649 -132.91815 21.03013 19.08839 7.36664 79.13524 -11.32971 2.31609 -109.68212 21.13527 -22.9796 -10.76663
-0.13267 0.44734 -0.11198 187.52645 0 11.88951 -20.07093 -4.52813 -1.5235 -16.93119 -0.65649 -2.25536 87.67725 -22.54204 33.08659 122.06244 89.38436 -20.26441 -5.02221 68.45715 35.5113 -9.66599 136.98144 -102.09247 -30.58139 0.47979 23.86081 -9.38982 -13.21937 -132.90868 21.02936 19.13252 7.40138 79.14361 -11.37112 2.30378 -109.69864 21.13558 -22.96673 -10.74412
-0.13271 0.44729 -0.1117 187.55524 0 11.86301 -20.19475 -4.50496 -1.55134 -16.72197 -0.56937 -2.2601 87.55483 -22.60293 33.15229 122.07276 88.99456 -20.41091 -4.94289 68.1102 35.45185 -9.52759 137.03097 -102.6016 -30.62514 0.10242 23.84509 -9.40705 -13.22165 -132.9094 21.02893 19.19748 7.44989 79.16853 -11.41762 2.29798 -109.7197 21.13533 -22.94761 -10.71597
-0.13272 0.44723 -0.11137 187.58767 0 11.83205 -20.33801 -4.48156 -1.5811 -16.47066 -0.46577 -2.25644 87.40247 -22.68345 33.22769 122.07038 88.56875 -20.57743 -4.85796 67.71811 35.3826 -9.3757 136.99876 -103.27125 -30.76379 -0.04791 23.83101 -9.42774 -13.22493 -132.9141 21.02859 19.26951 7.50317 79.2007 -11.4688 2.29373 -109.74233 21.13486 -22.92536 -10.68466
-0.13274 0.44717 -0.11106 187.61986 0 11.80318 -20.47622 -4.45903 -1.61064 -16.2317 -0.3674 -2.25626 87.25035 -22.76229 33.30099 122.07478 88.17527 -20.72488 -4.77908 67.33147 35.31703 -9.22821 137.0071 -103.84107 -30.86334 -0.29566 23.8165 -9.44809 -13.22915 -132.91735 21.02822 19.33697 7.55324 79.23078 -11.52102 2.28798 -109.76362 21.13448 -22.90352 -10.65347
-0.13279 0.44712 -0.11078 187.64595 0 11.77407 -20.59838 -4.433 -1.63729 -16.02035 -0.27839 -2.2575 87.1577 -22.80898 33.36444 122.07741 87.7102 -20.91559 -4.68447 67.00979 35.25567 -9.0893 137.00806 -104.52386 -30.94657 -0.58118 23.80074 -9.46305 -13.22751 -132.9191 21.02777 19.40994 7.60759 79.25586 -11.56071 2.28488 -109.78763 21.13419 -22.8855 -10.62698
-0.13276 0.44705 -0.11043 187.68586 0 11.74421 -20.75877 -4.41442 -1.67044 -15.742 -0.16605 -2.25371 86.93016 -22.92965 33.45144 122.07775 87.3878 -21.02073 -4.62174 66.53863 35.1821 -8.92764 137.00134 -105.00006 -31.08219 -0.72769 23.78779 -9.49023 -13.23833 -132.92488 21.02751 19.4736 7.65452 79.29308 -11.62681 2.27732 -109.80647 21.13363 -22.85925 -10.59082
-0.13249 0.44695 -0.1099 187.76066 0 11.71556 -21.01805 -4.41531 -1.72139 -15.28739 0.00672 -2.23916 86.36948 -23.2289 33.5922 122.09827 87.46267 -20.88138 -4.64765 65.7022 35.08635 -8.7229 137.00294 -104.98948 -31.38883 -0.56205 23.78395 -9.54931 -13.28309 -132.94118 21.02773 19.50502 7.67606 79.36146 -11.77072 2.25221 -109.80862 21.13264 -22.80757 -10.52204
-0.13214 0.44683 -0.1093 187.84972 0 11.68591 -21.31545 -4.42402 -1.77875 -14.76722 0.20228 -2.21968 85.66706 -23.6062 33.75747 122.11167 87.68425 -20.65544 -4.70622 64.7108 34.97689 -8.49397 136.99545 -104.7473 -31.73733 -0.26026 23.78246 -9.62086 -13.34042 -132.96125 21.02815 19.52771 7.69068 79.44185 -11.93989 2.2236 -109.80582 21.13134 -22.74837 -10.44495
-0.13183 0.44671 -0.10872 187.93377 0 11.65531 -21.59666 -4.42979 -1.83301 -14.27817 0.38743 -2.20176 85.00986 -23.96084 33.91781 122.11403 87.84238 -20.47138 -4.75037 63.76618 34.86777 -8.26369 136.98705 -104.52815 -32.03323 -0.00775 23.7789 -9.68721 -13.39215 -132.9795 21.02851 19.5575 7.71084 79.51721 -12.09352 2.1997 -109.80658 21.12999 -22.6949 -10.37602
-0.13149 0.44661 -0.10818 188.01162 0 11.63054 -21.87384 -4.43255 -1.8882 -13.782 0.5737 -2.18636 84.43689 -24.26027 34.05404 122.17974 87.9842 -20.2782 -4.79211 62.91801 34.78335 -8.07971 137.00362 -104.64854 -32.46944 0.2018 23.78009 -9.75128 -13.44343 -132.99871 21.02875 19.57426 7.7209 79.59125 -12.26447 2.16229 -109.80194 21.12944 -22.63159 -10.28827
-0.13121 0.44648 -0.10754 188.10588 0 11.59337 -22.16812 -4.44394 -1.94285 -13.2857 0.76242 -2.16474 83.6499 -24.69523 34.24399 122.10759 88.19704 -20.08212 -4.84723 61.83494 34.64414 -7.80045 136.95898 -104.02096 -32.62799 0.5271 23.77132 -9.82354 -13.49865 -133.01629 21.02928 19.61606 7.75048 79.67048 -12.40528 2.15265 -109.80729 21.12715 -22.58701 -10.23803
-0.13109 0.44628 -0.10666 188.24057 0 11.52323 -22.50063 -4.47355 -1.99589 -12.80505 0.95597 -2.12669 82.35011 -25.46488 34.59371 121.69307 88.55797 -19.90928 -4.92706 60.12227 34.35868 -7.20718 136.81595 -101.24155 -31.9588 1.16525 23.73907 -9.91127 -13.56108 -133.03169 21.03068 19.72847 7.83411 79.76319 -12.45667 2.21708 -109.84123 21.12022 -22.59602 -10.29148
-0.13103 0.44607 -0.10568 188.39156 0 11.44078 -22.84859 -4.51274 -2.04824 -12.32702 1.15051 -2.08291 80.83058 -26.37115 34.99245 121.13281 88.98929 -19.73529 -5.02025 58.1822 34.01824 -6.53 136.59869 -97.74163 -31.01781 1.90904 23.69549 -10.0078 -13.62691 -133.04411 21.03234 19.86642 7.93799 79.85977 -12.47686 2.3106 -109.88505 21.11153 -22.62414 -10.3834
-0.13095 0.44587 -0.10472 188.53593 0 11.36296 -23.18951 -4.54933 -2.09953 -11.8477 1.34202 -2.04178 79.38487 -27.22918 35.35839 120.61597 89.39457 -19.55416 -5.10987 56.35898 33.70196 -5.92797 136.37167 -94.66677 -30.23402 2.58604 23.65455 -10.10262 -13.69185 -133.05653 21.03385 19.99311 8.03347 79.95378 -12.51134 2.39261 -109.92497 21.1036 -22.64353 -10.45889
-0.13081 0.44564 -0.10385 188.67729 0 11.28794 -23.53299 -4.57679 -2.15546 -11.36543 1.54493 -1.99927 78.04934 -28.03472 35.77326 120.19719 89.77352 -19.39925 -5.18923 54.47373 33.38888 -5.16688 136.3302 -91.17872 -29.30932 3.34756 23.62579 -10.18719 -13.75541 -133.07727 21.03561 20.1182 8.12492 80.05367 -12.54621 2.46577 -109.96381 21.09585 -22.6629 -10.52937
-0.13084 0.44547 -0.10276 188.82883 0 11.20572 -23.87291 -4.62792 -2.20322 -10.89209 1.72441 -1.95961 76.42747 -28.97693 36.09295 119.53712 90.23005 -19.19449 -5.29375 52.66519 33.05604 -4.71992 135.88186 -88.37447 -28.61333 3.9559 23.56705 -10.29633 -13.82131 -133.0768 21.03679 20.25262 8.23019 80.13953 -12.57256 2.56621 -110.0053 21.08731 -22.6869 -10.61986
-0.13118 0.44537 -0.1011 189.00187 0 11.09292 -24.21097 -4.72051 -2.21303 -10.43173 1.83492 -1.91803 74.1256 -30.2965 36.17771 118.26757 90.81346 -18.81913 -5.4552 51.12878 32.68434 -5.1404 134.35308 -87.71045 -28.61148 4.11792 23.44468 -10.45892 -13.90234 -133.04455 21.03728 20.40799 8.36396 80.20685 -12.58266 2.71775 -110.06863 21.07712 -22.71952 -10.75307
-0.1317 0.44537 -0.0992 189.1845 0 10.97547 -24.54256 -4.84022 -2.21715 -9.98236 1.92213 -1.88147 71.53387 -31.74125 36.15798 116.75622 91.48367 -18.40014 -5.64285 49.67708 32.29458 -5.88382 132.41307 -87.74628 -28.84914 4.12087 23.28965 -10.64739 -13.98336 -132.98568 21.03701 20.5715 8.51166 80.25546 -12.58518 2.89833 -110.13088 21.06622 -22.75611 -10.90538
-0.13221 0.4454 -0.09739 189.365 0 10.86969 -24.86918 -4.96211 -2.2345 -9.53594 2.02289 -1.85015 69.03743 -33.10767 36.15908 115.34188 92.16092 -18.02351 -5.8247 48.18468 31.91133 -6.49307 130.64472 -87.41338 -28.98018 4.19441 23.13857 -10.83299 -14.05864 -132.92254 21.03642 20.7306 8.65642 80.2993 -12.59132 3.07763 -110.18286 21.05558 -22.79056 -11.05153
-0.13243 0.44509 -0.09566 189.53871 0 10.72478 -25.22964 -5.02463 -2.20834 -9.05728 2.11247 -1.78749 66.68446 -34.57359 36.2721 113.97723 92.64943 -17.55223 -5.9822 46.69464 31.53217 -7.04647 128.93695 -87.26989 -29.09461 4.27932 23.03229 -10.98458 -14.16003 -132.93044 21.0386 20.89421 8.78849 80.40118 -12.59577 3.21014 -110.28165 21.04503 -22.827 -11.18988
-0.13329 0.44553 -0.0937 189.7261 0 10.65833 -25.51802 -5.21524 -2.26966 -8.64676 2.21818 -1.79057 63.96997 -35.85501 36.12946 112.45304 93.54452 -17.26705 -6.19527 45.22142 31.14237 -7.79367 127.00769 -86.9066 -29.30123 4.30086 22.82609 -11.20901 -14.20481 -132.78154 21.03489 21.04926 8.9489 80.37532 -12.60217 3.44347 -110.28124 21.0343 -22.86012 -11.34665
-0.13581 0.44788 -0.09111 189.97019 0 10.82751 -25.60783 -5.7687 -2.58931 -8.43533 2.38822 -1.98092 60.30373 -36.63982 35.28229 110.55247 95.59316 -17.51224 -6.5655 43.78667 30.71472 -8.9991 124.55623 -85.77872 -29.72971 4.18999 22.34334 -11.66292 -14.11195 -132.22683 21.01463 21.18523 9.19384 80.02079 -12.61737 3.97468 -110.01722 21.0218 -22.88117 -11.56505
-0.13895 0.45101 -0.08829 190.22345 0 11.0724 -25.62574 -6.4468 -2.99425 -8.28935 2.57287 -2.23586 56.29127 -37.22589 34.18659 108.49956 98.03725 -17.94474 -6.98876 42.36462 30.27913 -10.38759 121.89903 -84.40801 -30.23943 4.01974 21.76285 -12.18288 -13.95867 -131.5108 20.98853 21.31095 9.46505 79.53436 -12.63464 4.601 -109.6508 21.0094 -22.89861 -11.79798
-0.14182 0.45388 -0.08557 190.45879 0 11.27114 -25.67686 -7.05791 -3.35014 -8.10472 2.74135 -2.45684 52.45197 -37.87358 33.21909 106.51379 100.2666 -18.28827 -7.38109 40.92967 29.85656 -11.69243 119.34312 -83.14148 -30.69607 3.87354 21.23281 -12.64957 -13.82075 -130.85579 20.96544 21.43691 9.71762 79.09595 -12.6501 5.16649 -109.32551 20.99794 -22.91937 -12.01433
-0.14466 0.45634 -0.08285 190.7535 0 11.51979 -25.72431 -7.71512 -3.74959 -7.95889 2.94841 -2.69798 48.52768 -38.64648 32.17983 104.52806 102.64952 -18.64827 -7.80334 39.52796 29.39574 -13.01397 116.73786 -81.91923 -31.22827 3.73367 20.67611 -13.21464 -13.73369 -130.25408 20.94093 21.58179 9.99842 78.70859 -12.669 5.80832 -109.02585 20.98236 -22.9348 -12.2747
